<svg xmlns="http://www.w3.org/2000/svg" xmlns:xlink="http://www.w3.org/1999/xlink" height="800" width="1200" viewBox="-53.7552 -28.92875 465.8784 173.5725"><use height="100%" width="100%" fill="#53565A" transform="translate(101.213 37.889)" xlink:href="#path0_fill"/><use height="100%" width="100%" fill="#53565A" transform="translate(140.17 48.155)" xlink:href="#path1_fill"/><use height="100%" width="100%" fill="#53565A" transform="translate(174.762 36.911)" xlink:href="#path2_fill"/><use height="100%" width="100%" fill="#53565A" transform="translate(185.866 48.155)" xlink:href="#path3_fill"/><use height="100%" width="100%" fill="#53565A" transform="translate(218.04 48.266)" xlink:href="#path4_fill"/><use height="100%" width="100%" fill="#53565A" transform="translate(245.503 40.088)" xlink:href="#path5_fill"/><use height="100%" width="100%" fill="#53565A" transform="translate(271.428 48.494)" xlink:href="#path6_fill"/><use height="100%" width="100%" fill="#53565A" transform="translate(282.555 48.155)" xlink:href="#path7_fill"/><use height="100%" width="100%" fill="#53565A" transform="translate(315.269 48.375)" xlink:href="#path8_fill"/><use height="100%" width="100%" fill="#53565A" transform="translate(271.163 36.896)" xlink:href="#path9_fill"/><g fill="#D50032"><use height="100%" width="100%" transform="translate(53.545 35.462)" xlink:href="#path10_fill"/><use height="100%" width="100%" transform="translate(53.545 71.032)" xlink:href="#path11_fill"/><use height="100%" width="100%" transform="translate(35.757 53.25)" xlink:href="#path12_fill"/><use height="100%" width="100%" transform="translate(40.972 40.671)" xlink:href="#path13_fill"/><use height="100%" width="100%" transform="translate(66.127 65.823)" xlink:href="#path14_fill"/><use height="100%" width="100%" transform="translate(40.971 65.823)" xlink:href="#path15_fill"/><use height="100%" width="100%" transform="translate(66.127 40.671)" xlink:href="#path16_fill"/><use height="100%" width="100%" transform="translate(54.263 24.459)" xlink:href="#path17_fill"/><use height="100%" width="100%" transform="translate(54.263 83.459)" xlink:href="#path18_fill"/><use height="100%" width="100%" transform="translate(24.756 53.969)" xlink:href="#path19_fill"/><use height="100%" width="100%" transform="translate(33.393 33.106)" xlink:href="#path20_fill"/><use height="100%" width="100%" transform="translate(75.125 74.815)" xlink:href="#path21_fill"/><use height="100%" width="100%" transform="translate(33.393 74.815)" xlink:href="#path22_fill"/><use height="100%" width="100%" transform="translate(75.124 33.106)" xlink:href="#path23_fill"/><use height="100%" width="100%" transform="translate(44.753 30.37)" xlink:href="#path24_fill"/><use height="100%" width="100%" transform="translate(64.676 78.473)" xlink:href="#path25_fill"/><use height="100%" width="100%" transform="translate(30.667 64.38)" xlink:href="#path26_fill"/><use height="100%" width="100%" transform="translate(30.667 44.455)" xlink:href="#path27_fill"/><use height="100%" width="100%" transform="translate(44.753 78.473)" xlink:href="#path28_fill"/><use height="100%" width="100%" transform="translate(64.674 30.37)" xlink:href="#path29_fill"/></g><g fill="#97999B"><use height="100%" width="100%" transform="translate(54.546 14.879)" xlink:href="#path30_fill"/><use height="100%" width="100%" transform="translate(55.27 6.729)" xlink:href="#path31_fill"/><use height="100%" width="100%" transform="translate(55.986)" xlink:href="#path32_fill"/><use height="100%" width="100%" transform="translate(54.793 94.447)" xlink:href="#path33_fill"/><use height="100%" width="100%" transform="translate(55.507 104.032)" xlink:href="#path34_fill"/><use height="100%" width="100%" transform="translate(56.214 112.179)" xlink:href="#path35_fill"/><use height="100%" width="100%" transform="translate(26.467 26.613)" xlink:href="#path36_fill"/><use height="100%" width="100%" transform="translate(20.906 21.061)" xlink:href="#path37_fill"/><use height="100%" width="100%" transform="translate(16.353 16.509)" xlink:href="#path38_fill"/><use height="100%" width="100%" transform="translate(82.89 82.71)" xlink:href="#path39_fill"/><use height="100%" width="100%" transform="translate(89.875 89.69)" xlink:href="#path40_fill"/><use height="100%" width="100%" transform="translate(14.893 54.778)" xlink:href="#path41_fill"/><use height="100%" width="100%" transform="translate(6.734 55.49)" xlink:href="#path42_fill"/><use height="100%" width="100%" transform="translate(0 56.211)" xlink:href="#path43_fill"/><use height="100%" width="100%" transform="translate(26.626 82.881)" xlink:href="#path44_fill"/><use height="100%" width="100%" transform="translate(21.065 89.859)" xlink:href="#path45_fill"/><use height="100%" width="100%" transform="translate(16.513 95.825)" xlink:href="#path46_fill"/><use height="100%" width="100%" transform="translate(82.723 26.449)" xlink:href="#path47_fill"/><use height="100%" width="100%" transform="translate(41.675 22.183)" xlink:href="#path48_fill"/><use height="100%" width="100%" transform="translate(39.318 15.464)" xlink:href="#path49_fill"/><use height="100%" width="100%" transform="translate(68.702 88.189)" xlink:href="#path50_fill"/><use height="100%" width="100%" transform="translate(72.319 96.184)" xlink:href="#path51_fill"/><use height="100%" width="100%" transform="translate(75.483 103.01)" xlink:href="#path52_fill"/><use height="100%" width="100%" transform="translate(22.292 41.418)" xlink:href="#path53_fill"/><use height="100%" width="100%" transform="translate(15.614 38.956)" xlink:href="#path54_fill"/><use height="100%" width="100%" transform="translate(10.1 36.998)" xlink:href="#path55_fill"/><use height="100%" width="100%" transform="translate(22.189 68.7)" xlink:href="#path56_fill"/><use height="100%" width="100%" transform="translate(15.461 72.334)" xlink:href="#path57_fill"/><use height="100%" width="100%" transform="translate(9.924 75.48)" xlink:href="#path58_fill"/><use height="100%" width="100%" transform="translate(41.409 88.082)" xlink:href="#path59_fill"/><use height="100%" width="100%" transform="translate(38.954 96.036)" xlink:href="#path60_fill"/><use height="100%" width="100%" transform="translate(36.99 102.819)" xlink:href="#path61_fill"/><use height="100%" width="100%" transform="translate(68.965 22.293)" xlink:href="#path62_fill"/><use height="100%" width="100%" transform="translate(72.687 15.613)" xlink:href="#path63_fill"/><use height="100%" width="100%" transform="translate(75.92 10.105)" xlink:href="#path64_fill"/></g><g fill="#53565A"><use height="100%" width="100%" transform="translate(346.755 48.797)" xlink:href="#path65_fill"/><use height="100%" width="100%" transform="translate(352.33 48.796)" xlink:href="#path66_fill"/></g><defs id="defs10551"><path d="M32.972 30.965a2.27 2.27 0 00-1.581.674c-3.589 3.273-6.995 4.66-11.431 4.66-8.312 0-14.818-6.958-14.818-15.838v-.098c0-8.979 6.356-15.742 14.818-15.742 4.221 0 7.604 1.364 11.074 4.426.532.357 1.082.554 1.583.554 1.346 0 2.522-1.143 2.522-2.453 0-.991-.629-1.683-1.002-2.003C31.075 2.593 27.01 0 20.027 0 8.803 0 0 8.986 0 20.459v.127c0 11.596 8.534 20.339 19.845 20.339 5.834 0 10.247-1.729 14.7-5.807a2.412 2.412 0 00.809-1.773c.001-1.269-1.118-2.38-2.382-2.38z" id="path0_fill"/><path d="M14.113 0C6.181 0 0 6.708 0 15.274v.12c0 8.707 6.299 15.267 14.65 15.267 4.463 0 7.877-1.363 11.064-4.423.499-.425.769-.986.769-1.593 0-1.164-.981-2.113-2.175-2.113-.657 0-1.122.311-1.418.574-2.393 2.205-5.038 3.267-8.122 3.267-5.26 0-9.186-3.685-9.842-9.2h20.552a2.277 2.277 0 002.28-2.278C27.757 7.492 23.081 0 14.113 0zm-.138 4.173c5.866 0 8.439 4.738 8.889 9.261H4.925c.656-5.463 4.357-9.261 9.05-9.261z" id="path1_fill"/><path d="M2.395 0C1.099 0 0 1.116 0 2.453v36.613c0 1.378 1.069 2.452 2.442 2.452 1.369 0 2.393-1.066 2.393-2.452V2.453A2.456 2.456 0 002.395 0z" id="path2_fill"/><path d="M14.101 0C6.186 0 0 6.708 0 15.274v.12c0 8.707 6.293 15.267 14.667 15.267 4.446 0 7.872-1.363 11.04-4.423.496-.425.766-.986.766-1.593 0-1.164-.99-2.113-2.185-2.113-.649 0-1.099.311-1.406.574-2.39 2.205-5.038 3.267-8.12 3.267-5.254 0-9.163-3.685-9.828-9.2h20.524a2.287 2.287 0 002.285-2.278C27.744 7.492 23.061 0 14.101 0zm-.121 4.173c5.844 0 8.43 4.738 8.901 9.261H4.934c.65-5.463 4.346-9.261 9.046-9.261z" id="path3_fill"/><path d="M13.24 12.896l-.117-.04c-3.656-1.099-7.11-2.163-7.11-4.66v-.12c0-2.288 2.191-3.896 5.306-3.896 2.311 0 4.872.759 7.396 2.2.197.098.584.248 1.071.248 1.201 0 2.183-.949 2.183-2.113 0-.807-.453-1.568-1.195-2.033C17.833.906 14.435 0 11.451 0 5.48 0 1.334 3.497 1.334 8.516v.115c0 5.649 5.63 7.248 9.735 8.421 3.98 1.104 6.99 2.16 6.99 4.808v.103c0 2.583-2.282 4.3-5.684 4.3-3.027 0-6.044-1.009-8.969-2.999a2.004 2.004 0 00-1.228-.404C.983 22.86 0 23.811 0 24.975c0 .845.46 1.483.891 1.798 3.222 2.299 7.443 3.678 11.251 3.678 6.317 0 10.547-3.593 10.547-8.926v-.115c-.001-5.238-4.672-7.096-9.449-8.514z" id="path4_fill"/><path d="M16.281 13.032c1.219 0 2.218-.979 2.218-2.178 0-1.174-1.03-2.173-2.218-2.173h-7.21V2.447C9.071 1.118 7.96 0 6.626 0 5.248 0 4.22 1.062 4.22 2.447v6.234H2.158C.984 8.681 0 9.68 0 10.854c0 1.149 1.004 2.178 2.158 2.178H4.22V30.14c0 5.434 3.005 8.412 8.422 8.412 1.641 0 2.99-.229 4.346-.789.841-.33 1.394-1.079 1.394-1.929 0-1.142-.953-2.12-2.099-2.12-.164 0-.324.05-.554.107a7.621 7.621 0 01-2.081.279c-3.076 0-4.575-1.463-4.575-4.515V13.032h7.208z" id="path5_fill"/><path d="M2.402 0C1.093 0 0 1.119 0 2.448v25.035a2.435 2.435 0 002.449 2.452c1.39 0 2.418-1.066 2.418-2.452V2.448A2.445 2.445 0 002.402 0z" id="path6_fill"/><path d="M24.528 22.202c-.535 0-.978.205-1.409.625-2.451 2.322-5.028 3.443-7.847 3.443-5.788 0-10.323-4.817-10.323-10.946v-.1c0-6.099 4.408-10.894 10.055-10.894 3.511 0 5.857 1.723 7.677 3.417.438.345 1.004.56 1.573.56a2.332 2.332 0 002.333-2.345c0-.792-.404-1.421-.749-1.721C22.65 1.364 19.22 0 15.067 0 6.742 0 0 6.873 0 15.324v.12c0 8.395 6.742 15.217 15.067 15.217 4.326 0 7.848-1.488 11.049-4.705.399-.392.654-.974.654-1.546 0-1.179-1.039-2.208-2.242-2.208z" id="path7_fill"/><path d="M22.823 3.269C20.666 1.099 17.478 0 13.328 0 9.895 0 6.949.612 3.793 1.963c-.68.275-1.344 1.069-1.344 2.048 0 1.146 1.004 2.128 2.178 2.128.27 0 .568-.083.874-.185a17.372 17.372 0 017.373-1.604c5.358 0 8.315 2.697 8.315 7.577v.629c-2.208-.592-4.8-1.126-8.586-1.126C4.71 11.43 0 15.009 0 21.015v.127c0 6.065 5.544 9.236 11.039 9.236 5.085 0 8.28-2.293 10.148-4.446v1.844c0 1.301.994 2.277 2.338 2.277 1.339 0 2.344-1.034 2.344-2.4V11.867c0-3.683-1.024-6.593-3.046-8.598zm-10.95 23.156c-3.377 0-6.979-1.695-6.979-5.447v-.115c0-3.566 3.052-5.699 8.147-5.699 2.741 0 5.459.375 8.2 1.151V18.9c.002 4.304-4.028 7.525-9.368 7.525z" id="path8_fill"/><path d="M2.771 0C1.25 0 0 1.249 0 2.762c0 1.516 1.251 2.752 2.771 2.752 1.496 0 2.739-1.236 2.739-2.752C5.512 1.249 4.267 0 2.771 0z" id="path9_fill"/><path d="M9.215 4.621c0 2.54-2.05 4.6-4.605 4.6A4.605 4.605 0 010 4.621 4.614 4.614 0 014.61 0a4.606 4.606 0 014.605 4.621z" id="path10_fill"/><path d="M9.215 4.61C9.215 2.067 7.165 0 4.61 0A4.611 4.611 0 000 4.61a4.602 4.602 0 004.61 4.61 4.593 4.593 0 004.605-4.61z" id="path11_fill"/><path d="M4.608 0c2.555 0 4.623 2.065 4.623 4.603a4.616 4.616 0 01-4.623 4.623A4.612 4.612 0 010 4.603 4.611 4.611 0 014.608 0z" id="path12_fill"/><path d="M7.872 1.36a4.592 4.592 0 010 6.509 4.613 4.613 0 01-6.526 0c-1.795-1.79-1.795-4.71 0-6.51a4.595 4.595 0 016.526 0z" id="path13_fill"/><path d="M7.866 1.352a4.591 4.591 0 00-6.508 0 4.595 4.595 0 000 6.523 4.588 4.588 0 006.508 0 4.595 4.595 0 000-6.523z" id="path14_fill"/><path d="M1.347 1.352a4.613 4.613 0 016.526 0 4.61 4.61 0 010 6.523 4.61 4.61 0 01-6.526 0 4.622 4.622 0 010-6.523z" id="path15_fill"/><path d="M1.358 1.36a4.578 4.578 0 000 6.509 4.591 4.591 0 006.508 0 4.578 4.578 0 000-6.51 4.573 4.573 0 00-6.508 0z" id="path16_fill"/><path d="M7.802 3.916c0 2.143-1.758 3.898-3.911 3.898A3.898 3.898 0 010 3.916C0 1.748 1.738 0 3.891 0a3.915 3.915 0 013.911 3.916z" id="path17_fill"/><path d="M7.802 3.896C7.802 1.749 6.044 0 3.891 0A3.893 3.893 0 000 3.896a3.891 3.891 0 003.891 3.901 3.908 3.908 0 003.911-3.901z" id="path18_fill"/><path d="M3.908 0c2.146 0 3.901 1.738 3.901 3.884a3.898 3.898 0 01-3.901 3.894A3.9 3.9 0 010 3.884C0 1.738 1.757 0 3.908 0z" id="path19_fill"/><path d="M6.66 1.135a3.885 3.885 0 010 5.522c-1.506 1.516-3.988 1.516-5.51 0a3.89 3.89 0 010-5.522c1.52-1.513 4.004-1.513 5.51 0z" id="path20_fill"/><path d="M6.663 1.146a3.901 3.901 0 00-5.524 0 3.897 3.897 0 000 5.507 3.887 3.887 0 005.524 0c1.506-1.512 1.506-3.988 0-5.507z" id="path21_fill"/><path d="M1.15 1.146c1.52-1.528 4.004-1.528 5.51 0a3.867 3.867 0 010 5.507c-1.506 1.536-3.988 1.536-5.51 0a3.872 3.872 0 010-5.507z" id="path22_fill"/><path d="M1.14 1.135a3.915 3.915 0 000 5.522c1.518 1.516 3.99 1.516 5.523 0 1.506-1.52 1.506-3.991 0-5.522-1.532-1.513-4.005-1.513-5.524 0z" id="path23_fill"/><path d="M6.638 2.128c.709 1.75-.127 3.769-1.88 4.488-1.748.739-3.751-.1-4.496-1.855A3.434 3.434 0 012.13.268c1.758-.74 3.776.109 4.508 1.86z" id="path24_fill"/><path d="M6.628 2.11C5.9.37 3.9-.462 2.12.26A3.45 3.45 0 00.262 4.763 3.453 3.453 0 004.77 6.619c1.738-.726 2.574-2.747 1.858-4.51z" id="path25_fill"/><path d="M2.113.268c1.763-.742 3.778.115 4.515 1.858a3.437 3.437 0 01-1.863 4.488C2.994 7.337.981 6.51.259 4.753A3.445 3.445 0 012.113.268z" id="path26_fill"/><path d="M4.765.253c1.746.74 2.59 2.75 1.863 4.511A3.47 3.47 0 012.113 6.63 3.465 3.465 0 01.26 2.13C.981.37 2.994-.457 4.765.252z" id="path27_fill"/><path d="M.262 2.11C1.006.37 3.01-.462 4.758.26a3.467 3.467 0 011.88 4.502A3.452 3.452 0 01.262 2.11z" id="path28_fill"/><path d="M.262 2.128A3.439 3.439 0 002.12 6.616 3.435 3.435 0 006.628 4.76C7.345 3 6.508.99 4.77.268a3.444 3.444 0 00-4.508 1.86z" id="path29_fill"/><path d="M6.376 3.199a3.168 3.168 0 01-3.169 3.177C1.441 6.376 0 4.957 0 3.199A3.205 3.205 0 013.207 0c1.755-.001 3.169 1.43 3.169 3.199z" id="path30_fill"/><path d="M4.955 2.48a2.474 2.474 0 01-2.473 2.465A2.47 2.47 0 010 2.48 2.48 2.48 0 012.482 0a2.483 2.483 0 012.473 2.48z" id="path31_fill"/><path d="M3.522 1.756c0 .981-.772 1.773-1.756 1.773A1.766 1.766 0 010 1.756C0 .792.787 0 1.766 0a1.75 1.75 0 011.756 1.756z" id="path32_fill"/><path d="M6.378 3.202A3.2 3.2 0 003.184 0a3.193 3.193 0 000 6.384 3.197 3.197 0 003.194-3.182z" id="path33_fill"/><path d="M4.958 2.469A2.468 2.468 0 002.47 0 2.465 2.465 0 000 2.469a2.472 2.472 0 002.47 2.477 2.476 2.476 0 002.488-2.477z" id="path34_fill"/><path d="M3.536 1.758C3.536.779 2.754 0 1.763 0 .786 0 0 .778 0 1.758s.787 1.778 1.763 1.778a1.77 1.77 0 001.773-1.778z" id="path35_fill"/><path d="M5.426.934a3.167 3.167 0 010 4.503 3.153 3.153 0 01-4.493.01 3.195 3.195 0 010-4.513 3.167 3.167 0 014.493 0z" id="path36_fill"/><path d="M4.224.725c.974.96.974 2.53 0 3.5a2.487 2.487 0 01-3.493.01c-.974-.981-.974-2.552 0-3.511a2.47 2.47 0 013.493 0z" id="path37_fill"/><path d="M3.01.519a1.751 1.751 0 010 2.488 1.741 1.741 0 01-2.495 0 1.76 1.76 0 010-2.488 1.759 1.759 0 012.495 0z" id="path38_fill"/><path d="M5.446.937a3.177 3.177 0 00-4.505 0C-.325 2.177-.303 4.2.941 5.445a3.153 3.153 0 004.488 0A3.183 3.183 0 005.446.937z" id="path39_fill"/><path d="M4.223.724a2.488 2.488 0 00-3.509 0c-.952.953-.952 2.537 0 3.5a2.48 2.48 0 003.509 0 2.47 2.47 0 000-3.5z" id="path40_fill"/><path d="M3.187 0a3.21 3.21 0 013.196 3.197c0 1.758-1.448 3.187-3.196 3.187A3.181 3.181 0 010 3.197 3.186 3.186 0 013.187 0z" id="path41_fill"/><path d="M2.487 0a2.475 2.475 0 012.462 2.485 2.475 2.475 0 01-2.462 2.468C1.116 4.953 0 3.839 0 2.485A2.485 2.485 0 012.487 0z" id="path42_fill"/><path d="M1.768 0c.984 0 1.766.784 1.766 1.763 0 .969-.781 1.758-1.766 1.758A1.774 1.774 0 010 1.763C0 .785.807 0 1.768 0z" id="path43_fill"/><path d="M.936.938A3.179 3.179 0 015.437.93c1.253 1.257 1.253 3.277 0 4.514a3.183 3.183 0 01-4.501 0 3.18 3.18 0 010-4.506z" id="path44_fill"/><path d="M.736.723a2.469 2.469 0 013.491 0 2.475 2.475 0 010 3.501c-.969.97-2.54.97-3.506.006A2.474 2.474 0 01.736.723z" id="path45_fill"/><path d="M.502.525c.72-.7 1.813-.7 2.515-.005a1.789 1.789 0 010 2.497 1.785 1.785 0 01-2.515 0 1.798 1.798 0 010-2.492z" id="path46_fill"/><path d="M.945.932a3.169 3.169 0 00-.01 4.506 3.166 3.166 0 004.496 0 3.153 3.153 0 000-4.5A3.16 3.16 0 00.945.932z" id="path47_fill"/><path d="M5.503 1.794a2.848 2.848 0 01-1.569 3.714A2.853 2.853 0 01.21 3.94 2.864 2.864 0 011.778.215c1.462-.605 3.123.11 3.725 1.58z" id="path48_fill"/><path d="M4.281 1.385a2.24 2.24 0 01-1.229 2.897A2.234 2.234 0 01.163 3.06C-.302 1.92.263.634 1.376.164c1.157-.46 2.445.082 2.905 1.22z" id="path49_fill"/><path d="M5.51 1.787A2.862 2.862 0 001.786.21C.329.806-.391 2.48.215 3.939.819 5.385 2.475 6.11 3.94 5.496a2.854 2.854 0 001.57-3.71z" id="path50_fill"/><path d="M4.284 1.39A2.217 2.217 0 001.392.161 2.217 2.217 0 00.165 3.053a2.238 2.238 0 002.9 1.235c1.127-.47 1.689-1.77 1.219-2.899z" id="path51_fill"/><path d="M3.046.977A1.584 1.584 0 00.978.12C.182.433-.213 1.368.117 2.173a1.584 1.584 0 002.06.869A1.588 1.588 0 003.046.977z" id="path52_fill"/><path d="M3.972.226A2.852 2.852 0 015.5 3.965c-.625 1.454-2.305 2.138-3.756 1.52A2.872 2.872 0 01.223 1.738 2.865 2.865 0 013.972.226z" id="path53_fill"/><path d="M3.095.17a2.222 2.222 0 011.17 2.915 2.235 2.235 0 01-2.91 1.188C.228 3.789-.304 2.48.18 1.36.65.233 1.956-.297 3.095.17z" id="path54_fill"/><path d="M2.205.128a1.563 1.563 0 01.832 2.063 1.56 1.56 0 01-2.078.83A1.55 1.55 0 01.127.968C.475.16 1.413-.217 2.205.13z" id="path55_fill"/><path d="M1.777.209c1.458-.59 3.134.11 3.721 1.563.589 1.474-.1 3.142-1.563 3.735A2.86 2.86 0 011.777.209z" id="path56_fill"/><path d="M1.385.167a2.222 2.222 0 012.895 1.21c.46 1.138-.087 2.445-1.224 2.896-1.124.455-2.43-.09-2.904-1.227C-.286 1.915.25.616 1.385.166z" id="path57_fill"/><path d="M.978.117a1.58 1.58 0 012.063.864 1.575 1.575 0 01-.88 2.066 1.556 1.556 0 01-2.034-.87A1.554 1.554 0 01.978.116z" id="path58_fill"/><path d="M.232 1.731A2.855 2.855 0 013.97.227c1.46.609 2.125 2.295 1.523 3.741C4.864 5.42 3.199 6.11 1.75 5.489A2.859 2.859 0 01.232 1.731z" id="path59_fill"/><path d="M.172 1.353C.657.219 1.95-.311 3.079.189c1.144.465 1.658 1.769 1.19 2.897-.486 1.113-1.782 1.663-2.914 1.185A2.244 2.244 0 01.172 1.353z" id="path60_fill"/><path d="M.13.97A1.575 1.575 0 012.21.13a1.561 1.561 0 01.83 2.062 1.559 1.559 0 01-2.063.844C.167 2.691-.223 1.772.13.97z" id="path61_fill"/><path d="M.231 1.751a2.845 2.845 0 001.511 3.744c1.448.622 3.146-.072 3.761-1.52.61-1.459-.085-3.128-1.54-3.747A2.835 2.835 0 00.23 1.751z" id="path62_fill"/><path d="M.17 1.363a2.222 2.222 0 001.191 2.904 2.21 2.21 0 002.902-1.181A2.215 2.215 0 003.094.179 2.229 2.229 0 00.17 1.363z" id="path63_fill"/><path d="M.126.962A1.57 1.57 0 00.985 3.04a1.581 1.581 0 002.058-.844A1.585 1.585 0 00.126.962z" id="path64_fill"/><path d="M2.036.724H0V0h4.905v.724H2.869V5.94h-.833V.724z" id="path65_fill"/><path d="M.476 0h.875l1.363 3.214c.135.328.295.799.295.799h.017s.16-.471.295-.799L4.683 0h.875l.48 5.94h-.824l-.295-3.744c-.025-.362-.008-.875-.008-.875h-.017s-.177.547-.319.875L3.389 4.871h-.74L1.471 2.196c-.135-.32-.32-.892-.32-.892h-.016s.008.53-.017.892L.832 5.94H0z" id="path66_fill"/></defs></svg>